<svg style="max-height: 500px" viewBox="155.648 204.8 3440.64 3751.936" xmlns="http://www.w3.org/2000/svg" width="3440.64" height="3751.936">

<path stroke-width="0.80" stroke-linejoin="round" stroke="#353535" fill-rule="evenodd" fill="#353535" d="M1994.5 415.93 c-214.11 .48 -261.72 .83 -265 1.93 -7.33 2.45 -15.86 7.59 -21.1 12.7 -2.85 2.78 -6.52 7.73 -8.17 11 -1.65 3.27 -3.54 8.42 -4.22 11.45 -.69 3.1 -1.07 9.89 -.87 15.56 .33 9.33 .64 10.64 4.26 18 2.73 5.55 5.78 9.78 10.12 14.06 3.55 3.5 8.66 7.27 11.93 8.82 6.15 2.91 6.09 4.29 34.56 4.95 28.47 .66 85.47 .59 205.73 .6 121.69 .01 221.25 .39 221.25 .85 0 .46 -.34 1.17 -.75 1.58 -.41 .41 -.75 1.11 -.75 1.54 0 .44 -3.63 5.01 -8.06 10.17 -8.02 9.32 -18.48 21.92 -36.42 43.87 -5.17 6.32 -13.72 16.45 -19.01 22.5 -7.8 8.93 -82.82 98.55 -92 109.92 -4.27 5.29 -60.6 72.63 -87.16 104.21 -72.04 85.66 -92.54 110.06 -105.19 125.25 -7.61 9.14 -24.34 29 -37.16 44.12 -12.82 15.12 -26.63 31.55 -30.69 36.5 -8.86 10.81 -37.78 45.46 -51.46 61.66 -5.42 6.41 -11.36 14.16 -13.2 17.22 -1.85 3.06 -4.5 8.39 -5.9 11.84 -1.84 4.55 -2.68 8.8 -3.03 15.42 -.4 7.53 -.09 10.44 1.74 16.5 1.22 4.05 3.38 9.5 4.79 12.11 1.41 2.61 5.11 7.17 8.22 10.14 3.11 2.97 8.44 6.8 11.84 8.52 6.59 3.33 4.23 4.88 38.97 5.58 34.74 .71 106.58 .57 261.57 .54 230.36 -.06 282.05 -.31 286.15 -1.4 2.75 -.73 7.75 -2.72 11.11 -4.42 3.36 -1.7 8.58 -5.36 11.61 -8.12 3.45 -3.15 6.82 -7.57 9.02 -11.81 3.44 -6.62 5.09 -12.2 6.3 -21.27 .76 -5.67 -1.58 -17.11 -4.94 -24.16 -1.4 -2.94 -4.53 -7.85 -6.94 -10.91 -2.42 -3.06 -6.84 -7.19 -9.83 -9.17 -2.99 -1.98 -8.11 -4.51 -11.38 -5.61 -5.86 -1.97 -9.19 -2.01 -232.83 -2.54 -124.78 -.3 -227.11 -.77 -227.39 -1.05 -.28 -.28 .12 -1.26 .88 -2.19 .77 -.92 1.17 -1.78 .89 -1.9 -.28 -.12 4.7 -6.46 11.05 -14.1 6.35 -7.63 14.89 -17.93 18.96 -22.88 4.07 -4.95 17.84 -21.38 30.6 -36.5 12.76 -15.12 31.23 -37.13 41.04 -48.9 9.82 -11.77 22.07 -26.39 27.23 -32.5 5.16 -6.11 16.11 -19.2 24.33 -29.1 8.22 -9.9 20.92 -24.97 28.22 -33.5 25.71 -30.02 33.23 -38.87 50.56 -59.54 9.62 -11.48 22.23 -26.52 28.02 -33.41 5.79 -6.9 19.93 -23.79 31.43 -37.54 11.5 -13.75 26.64 -31.75 33.65 -40 7.01 -8.25 25.26 -30.04 40.57 -48.43 15.31 -18.38 30.92 -37.06 34.69 -41.5 3.77 -4.44 11.4 -13.7 16.96 -20.57 9.52 -11.78 26.72 -32.19 47.21 -56 10.04 -11.67 17.15 -21.35 20.36 -27.72 2.75 -5.47 5.09 -15.45 5.09 -21.78 0 -2.75 -.66 -7.82 -1.48 -11.26 -.81 -3.44 -2.8 -8.89 -4.43 -12.11 -1.62 -3.21 -5.24 -8.35 -8.05 -11.42 -2.8 -3.07 -7.2 -6.97 -9.77 -8.67 -2.57 -1.7 -7.62 -4.02 -11.21 -5.15 -5.66 -1.78 -9.58 -2.09 -29.04 -2.3 -12.38 -.14 -139.95 .02 -283.5 .34z M567 693.69 c-7.93 .84 -25.06 4.45 -31.57 6.66 -10.2 3.47 -20.67 8.23 -29.24 13.3 -4.15 2.46 -11.19 7.31 -15.62 10.78 -4.44 3.47 -11.71 10.11 -16.15 14.75 -8.82 9.2 -20.99 26.83 -27.41 39.7 -4.79 9.59 -9.13 22.43 -11.38 33.63 -.88 4.4 -2.06 15.2 -2.61 24 -.65 10.41 -1 251.39 -1.01 690.07 l-0 674.07 -3.96 30.04 c-2.18 16.52 -4.86 39.89 -5.96 51.93 -3.14 34.3 -6.04 81.26 -6.95 112.39 -1.48 51.17 1.4 119.02 7.43 175 3.09 28.65 8.6 69.43 12.04 89 2.93 16.71 9.63 49.33 14.89 72.5 15.26 67.25 32.82 123.91 57.47 185.5 17.83 44.55 32.42 77.82 46.11 105.15 4.31 8.61 14.21 27.51 21.99 42 14.52 27.02 27.89 50.55 40.27 70.85 8.58 14.07 37.52 57.63 50.5 76 21.79 30.85 43.79 58.97 71.58 91.5 30.46 35.65 60.6 67.99 88.08 94.52 20.5 19.79 41.96 39.68 54.52 50.54 26.33 22.77 70.35 57.8 97.98 77.96 17.49 12.76 51.54 35.61 77 51.67 34.67 21.86 101.21 57.81 138.36 74.73 76.48 34.85 155.26 62.1 229.64 79.42 49.4 11.51 90.43 18.87 139.5 25.05 37.28 4.69 64.46 6.94 117.5 9.73 12.96 .68 109.2 1.26 261.51 1.58 278.44 .57 303.29 .18 367.49 -5.75 22.78 -2.11 42.35 -4.53 68.5 -8.5 35.89 -5.44 63.21 -10.9 100.09 -20.01 30.76 -7.6 62.23 -16.74 89.15 -25.89 23.31 -7.92 65.3 -24.38 93.19 -36.52 31.02 -13.51 51.82 -24.03 92.39 -46.73 9.25 -5.18 23.2 -13.29 31 -18.02 37.29 -22.65 89.3 -59.55 118.67 -84.19 22.4 -18.79 60.11 -53.45 78.05 -71.71 9.65 -9.83 24.24 -25.3 32.41 -34.38 13.51 -15 19.58 -22.23 42.41 -50.41 29.12 -35.96 57.64 -76.98 84.07 -120.95 25.67 -42.7 57.68 -104.03 77.32 -148.14 14.61 -32.8 42.61 -104.35 54.25 -138.61 6.07 -17.88 19.15 -61.65 27.98 -93.67 18.34 -66.51 34.91 -146.18 44.44 -213.72 3.07 -21.77 6.92 -54.04 9.55 -80 2.27 -22.44 5.3 -63.94 6.66 -91 1.54 -30.8 1.54 -113.57 -0 -146.5 -2.89 -61.97 -7.43 -105.28 -16.64 -158.69 -4.28 -24.84 -8.08 -42.8 -14.56 -68.81 -5.82 -23.34 -12.04 -44.76 -18.29 -63 -7.15 -20.86 -20.38 -55.85 -26.84 -71 -8.53 -20.01 -26.13 -55.36 -36.8 -73.89 -13.09 -22.75 -30.88 -51.25 -40.33 -64.61 -9.25 -13.08 -30.83 -40.21 -44.93 -56.5 -14.51 -16.76 -34.71 -37.91 -50.03 -52.38 -13.61 -12.86 -41.79 -37.13 -58.58 -50.45 -4.74 -3.76 -10.3 -8.43 -12.37 -10.38 l-3.75 -3.54 -.02 -359.62 c-.01 -195.28 .05 -287.87 -.59 -334.11 -.64 -46.24 -2 -46.14 -4.84 -56.03 -4.96 -17.23 -13.42 -34.26 -24.1 -48.48 -2.89 -3.85 -9.46 -11.18 -14.6 -16.29 -5.14 -5.11 -13.4 -12.2 -18.35 -15.75 -4.95 -3.55 -13.5 -8.67 -19 -11.38 -10.61 -5.22 -24.52 -9.84 -38.5 -12.78 -6.5 -1.37 -13.09 -1.79 -28 -1.79 -12.49 0 -22.02 .49 -26.5 1.38 -10.4 2.04 -26.82 7.73 -37 12.81 -4.95 2.47 -12.6 6.89 -17 9.82 -4.4 2.93 -11.46 8.22 -15.7 11.75 -10.93 9.12 -47.28 42.63 -83.62 77.09 -17.11 16.23 -42.71 40.23 -56.87 53.33 -14.16 13.1 -36.82 34.4 -50.35 47.33 -22.34 21.34 -35.58 33.77 -79.88 75 -7.98 7.43 -27.28 25.65 -42.9 40.5 -45.49 43.26 -53.17 50.51 -83.71 79 -30.57 28.52 -37.9 35.42 -67.51 63.54 -10.15 9.65 -26.78 25.17 -36.94 34.5 -10.16 9.33 -23.44 21.69 -29.5 27.46 -6.06 5.78 -13.72 12.97 -17.03 16 -3.3 3.03 -17.48 16.33 -31.5 29.57 -14.02 13.24 -35.17 33.04 -47 44 -11.82 10.96 -26.52 24.77 -32.67 30.68 -8.35 8.04 -11.82 10.75 -13.76 10.75 -1.43 0 -9.68 -1.81 -18.33 -4.03 -40.17 -10.28 -80.47 -18.66 -126.74 -26.37 -41.98 -6.99 -90.76 -12.68 -137.5 -16.05 -43.65 -3.14 -69.95 -4.05 -115.5 -3.97 -49.16 .08 -88.59 1.74 -130 5.45 -85.84 7.7 -172.64 22.54 -254 43.43 -11.55 2.97 -32.89 8.8 -47.42 12.96 -14.53 4.16 -27.42 7.57 -28.64 7.57 -1.22 0 -3.11 -.79 -4.2 -1.75 -2.3 -2.03 -15.65 -19.57 -33.31 -43.75 -6.83 -9.35 -17.56 -23.53 -23.84 -31.5 -6.29 -7.97 -25.96 -33.85 -43.72 -57.5 -31.67 -42.18 -59.91 -79.65 -71.18 -94.47 -3.13 -4.11 -20.98 -27.76 -39.68 -52.55 -48.06 -63.71 -63.58 -84.2 -91.93 -121.33 -13.71 -17.96 -34.03 -44.8 -45.15 -59.65 -29.8 -39.78 -85.16 -113.04 -124.41 -164.65 -18.97 -24.94 -45.44 -59.97 -58.82 -77.85 -13.5 -18.03 -27.97 -36.22 -32.51 -40.85 -4.5 -4.59 -12.23 -11.5 -17.17 -15.36 -4.94 -3.85 -13.12 -9.44 -18.16 -12.41 -5.05 -2.97 -13.73 -7.23 -19.29 -9.46 -11.44 -4.59 -25.03 -8.26 -36.46 -9.85 -7.25 -1.01 -25.7 -1.22 -33.61 -.39z m24.11 99.32 c2.96 .55 8.22 2.39 11.68 4.08 3.46 1.69 8.65 5.4 11.54 8.24 2.89 2.84 7.73 8.32 10.76 12.17 3.03 3.85 17.38 22.97 31.9 42.5 14.51 19.53 32.51 43.38 39.99 53 7.48 9.62 20.89 27.4 29.8 39.5 8.91 12.1 24.32 32.57 34.24 45.5 9.93 12.93 22.5 29.35 27.95 36.5 5.44 7.15 16.57 21.69 24.72 32.32 8.15 10.62 26.74 35.4 41.32 55.06 14.58 19.66 31.5 42.02 37.61 49.68 6.11 7.66 18.36 23.75 27.23 35.74 8.86 11.99 21.18 28.42 27.36 36.5 6.19 8.08 20.72 27.29 32.3 42.69 11.58 15.4 28.47 37.68 37.54 49.5 9.07 11.82 27.38 36.12 40.71 54 13.32 17.88 29.51 39.3 35.98 47.62 6.47 8.32 15.68 20.51 20.47 27.11 4.79 6.59 16.01 21.39 24.94 32.88 8.93 11.49 25.31 33.04 36.38 47.89 12.43 16.67 22.8 29.49 27.08 33.5 7.06 6.61 14.63 10.99 23.65 13.67 2.76 .82 8.44 1.49 12.63 1.49 4.19 0 10.66 -.7 14.37 -1.57 3.71 -.86 15.19 -4.02 25.5 -7.02 10.31 -3 27.87 -7.98 39.02 -11.05 23.35 -6.44 75 -19.19 93.01 -22.96 18.91 -3.95 87.87 -16.16 107.33 -19 39.05 -5.7 80.28 -9.87 130.88 -13.25 19.99 -1.33 39.39 -1.76 79 -1.76 44.22 .01 57.55 .36 84.5 2.26 38.79 2.73 73.43 6.16 103.44 10.24 22.94 3.12 66.31 10.52 94.06 16.04 23.1 4.6 55.43 12.16 83.15 19.45 13.56 3.57 28.39 6.95 32.95 7.52 5.99 .75 10.16 .73 15 -.09 3.69 -.62 9.47 -2.44 12.85 -4.04 3.38 -1.6 8.71 -4.89 11.85 -7.31 6.21 -4.8 25.47 -22.43 59.7 -54.66 12.1 -11.39 26.78 -25.16 32.63 -30.59 17.91 -16.65 52.35 -48.98 71.24 -66.88 9.87 -9.35 24.25 -22.85 31.95 -30 7.71 -7.15 25.75 -24.06 40.09 -37.57 14.34 -13.51 33.34 -31.29 42.21 -39.5 8.87 -8.21 28.46 -26.63 43.54 -40.93 15.07 -14.3 41.1 -38.82 57.85 -54.5 16.74 -15.68 42.56 -39.97 57.36 -54 27.81 -26.34 61.75 -58.14 98.16 -91.98 11.53 -10.71 28.83 -26.95 38.46 -36.09 9.62 -9.14 27.4 -25.78 39.5 -36.98 20.22 -18.71 30.44 -28.29 63.93 -59.87 6.56 -6.19 14.79 -13.29 18.27 -15.78 3.49 -2.49 8.66 -5.4 11.49 -6.48 2.83 -1.08 8.78 -2.21 13.23 -2.52 5.75 -.4 9.88 -.1 14.31 1.04 3.43 .88 8.53 2.77 11.34 4.19 2.81 1.42 7.07 4.39 9.46 6.6 2.4 2.21 5.77 6.22 7.49 8.91 1.73 2.69 4.11 7.27 5.31 10.17 l2.17 5.28 .52 377.5 c.47 340.69 .67 377.99 2.1 382.5 .87 2.75 2.78 7.36 4.25 10.25 1.47 2.89 5.61 8.36 9.2 12.17 3.59 3.81 17.68 15.49 31.3 25.96 13.63 10.47 30.14 23.95 36.7 29.95 20.25 18.53 63.53 63.04 73.62 75.7 12.53 15.72 35.93 48.44 46.88 65.53 4.78 7.46 11.7 18.94 15.38 25.5 8.31 14.81 27.29 53.23 36.01 72.88 11.09 24.99 23.49 60.63 32.91 94.55 6.23 22.46 10.94 42.36 16.56 70 7.63 37.52 12.82 77.25 16.14 123.5 1.54 21.5 2.22 42.97 2.63 83 .35 34.14 .13 63.38 -.6 79.5 -1.92 42.67 -6.51 96.65 -11.68 137.5 -3.25 25.66 -9.59 66.74 -14.04 91 -5.53 30.1 -15.91 78.72 -22.85 107 -6.9 28.12 -23.28 83.63 -34.38 116.5 -10.01 29.63 -22.44 63.27 -34.94 94.5 -9.12 22.79 -24.47 56.24 -42.22 92 -18.69 37.65 -36.02 69.11 -54 98.02 -9.94 15.97 -34.8 53.06 -43.89 65.48 -10.62 14.5 -28.54 37.62 -37.97 49 -12.97 15.64 -22.32 26.13 -43.2 48.5 -31.51 33.75 -65.91 64.89 -104.16 94.28 -22.48 17.27 -38.24 28.57 -54.27 38.93 -19.26 12.44 -43.12 26.96 -57.75 35.14 -29.97 16.76 -70.09 36.5 -100.25 49.34 -32.16 13.69 -70.11 27.24 -104.6 37.35 -23.83 6.98 -60.02 16.13 -84.9 21.45 -22.58 4.83 -58.7 11.03 -81 13.9 -19.62 2.53 -51.95 5.73 -72 7.14 -8.53 .6 -36.43 1.49 -62 1.98 -60.99 1.17 -434.37 1.17 -484.5 -0 -21.45 -.5 -48.9 -1.61 -61 -2.47 -43.55 -3.08 -87.88 -8.28 -128.81 -15.12 -25.81 -4.31 -62.05 -11.85 -88.27 -18.36 -10.96 -2.72 -29.59 -7.7 -41.42 -11.07 -23.28 -6.63 -57.63 -17.89 -81.5 -26.72 -16.18 -5.98 -45.17 -18.06 -68.62 -28.58 -20.71 -9.29 -62.21 -30.18 -83.38 -41.97 -24.66 -13.73 -54.69 -32.18 -81.35 -49.97 -25.02 -16.7 -39.32 -26.84 -65.65 -46.61 -22.18 -16.65 -33.09 -25.42 -55.33 -44.47 -23.56 -20.18 -49.66 -43.98 -67.52 -61.56 -25.62 -25.21 -67.57 -71.19 -91.79 -100.62 -19.36 -23.52 -53.57 -69.71 -69.98 -94.5 -22.46 -33.92 -41.42 -65.08 -58.3 -95.79 -8.33 -15.15 -37.78 -75.03 -47.57 -96.71 -9.26 -20.5 -22.17 -51.82 -29.4 -71.31 -10.99 -29.64 -24.99 -73.48 -35.51 -111.19 -9.57 -34.32 -18.03 -73.15 -25.5 -117 -4.37 -25.68 -5.94 -36.87 -9.04 -64.5 -3.49 -31.12 -6.35 -66.29 -7.52 -92.5 -1.3 -29.02 -1.29 -82.58 0 -110 1.07 -22.69 3.99 -62.06 6.52 -88 .83 -8.53 2.87 -26.53 4.52 -40 1.66 -13.47 3.43 -29.9 3.95 -36.5 .57 -7.29 .95 -276.27 .98 -685.5 .03 -443.8 .38 -675.89 1.04 -680.5 1.12 -7.82 6.15 -19.42 11.17 -25.76 1.76 -2.22 5.81 -5.96 9 -8.31 5.25 -3.86 14.24 -7.64 20.8 -8.74 4.79 -.8 10.76 -.68 16.11 .31z M2322.5 1996.95 c-3.3 .39 -9.04 1.72 -12.77 2.96 -3.72 1.24 -9.5 4.08 -12.84 6.31 -3.34 2.23 -7.9 6.35 -10.13 9.16 -2.23 2.81 -5.06 7.36 -6.28 10.11 -1.22 2.75 -2.73 7.38 -3.35 10.3 -.62 2.91 -1.12 8.09 -1.12 11.5 .01 3.41 .64 8.56 1.41 11.44 .77 2.88 2.42 7.38 3.67 10 1.25 2.62 5.23 7.72 8.84 11.35 4.71 4.73 8.68 7.6 14.06 10.14 4.12 1.95 9.97 4.15 13 4.88 4.46 1.08 32.08 1.34 145.75 1.36 77.14 .01 140.25 .06 140.25 .12 0 .05 -.66 1.43 -1.47 3.05 -.81 1.63 -2.67 4.06 -4.13 5.4 -4.38 4.03 -27.88 30.22 -44.36 49.45 -8.49 9.9 -27.84 31.95 -43.01 49 -15.17 17.05 -33.86 38.2 -41.53 47 -7.68 8.8 -18.02 20.51 -22.97 26.02 -10.4 11.56 -21.55 24.21 -26.43 29.98 -1.86 2.2 -11.15 12.55 -20.64 23 -9.49 10.45 -22.14 24.67 -28.11 31.6 -5.97 6.93 -16.92 19.32 -24.35 27.54 -23.9 26.45 -51.35 57.44 -56.8 64.12 -2.92 3.58 -6.57 9.03 -8.12 12.12 -1.55 3.09 -3.38 8.1 -4 11.02 -1.51 7.1 -1.35 17.48 .29 23.6 2.19 8.18 7.52 17.56 13.04 22.95 5.58 5.44 13.82 10.26 22.6 13.21 5.26 1.77 14.17 1.86 205.5 2.13 141.04 .2 201.88 -.03 206.38 -.8 3.51 -.6 9.58 -2.7 13.5 -4.68 13.05 -6.57 23.62 -20.17 26.52 -34.11 .61 -2.91 1.1 -8.09 1.09 -11.5 -.01 -3.41 -.67 -8.56 -1.42 -11.39 -2.21 -8.3 -7.43 -16.97 -13.73 -22.81 -3.2 -2.96 -8.61 -6.74 -12.06 -8.42 -6.55 -3.19 -8 -4.71 -27.11 -5.47 -19.12 -.76 -55.9 -.75 -133.12 -.88 -77.3 -.13 -140.54 -.5 -140.54 -.83 -0 -1.06 37.79 -44.72 57.48 -66.41 24.39 -26.87 38.66 -42.72 44.99 -50 3.83 -4.4 11.26 -12.72 16.52 -18.5 5.26 -5.78 12.47 -13.87 16.03 -17.99 11.6 -13.43 44.16 -50.28 53.02 -60.01 4.75 -5.22 21.85 -24.57 37.98 -43 16.13 -18.43 35.22 -40.03 42.42 -48 12.88 -14.27 29.35 -32.81 38.96 -43.87 5.76 -6.62 11.33 -14.14 14.35 -19.36 3.86 -6.68 5.39 -12.86 5.39 -21.77 -0 -4.68 -.51 -10.75 -1.13 -13.5 -1.88 -8.33 -6.77 -16.97 -12.93 -22.85 -3.13 -2.99 -8.48 -6.83 -11.88 -8.55 -3.4 -1.72 -8.77 -3.9 -11.94 -4.85 -5.36 -1.61 -19.36 -1.73 -202.26 -1.87 -108.07 -.08 -199.2 .18 -202.5 .57z M1048.26 2101.5 c-3.43 .75 -9.04 2.86 -12.47 4.68 -3.43 1.82 -8.99 5.89 -12.36 9.03 -3.44 3.22 -7.49 8.28 -9.25 11.58 -1.72 3.22 -3.81 8.51 -4.66 11.74 -.84 3.23 -1.53 7.96 -1.53 10.51 0 6.3 3.38 19.03 6.63 25.01 1.47 2.7 5.44 7.57 8.81 10.81 6.31 6.06 16.56 11.96 24.59 14.16 3.44 .94 36.88 1.18 145.31 1.03 l140.84 -.19 -.7 2.21 c-.39 1.22 -5.55 7.66 -11.48 14.31 -5.93 6.66 -17.01 19.33 -24.64 28.17 -7.62 8.84 -20.38 23.43 -28.36 32.42 -7.97 8.99 -23.51 26.51 -34.53 38.93 -11.01 12.42 -28.11 31.81 -37.98 43.08 -9.87 11.28 -23.39 26.57 -30.04 34 -6.64 7.43 -21.68 24.53 -33.41 38 -11.73 13.47 -29.07 33.28 -38.54 44 -9.47 10.72 -24.14 27.41 -32.61 37.08 -8.47 9.67 -20.84 23.65 -27.48 31.05 -6.64 7.41 -13.97 16.26 -16.28 19.66 -2.31 3.4 -5.1 8.28 -6.19 10.83 -2.86 6.66 -3.94 15.94 -2.86 24.54 1.07 8.55 5.6 18.79 11.67 26.44 2.23 2.81 6.74 6.89 10.01 9.08 3.27 2.18 9.27 5.06 13.34 6.39 l7.39 2.42 201 -.02 201 -.02 6.71 -2.09 c3.69 -1.15 9.25 -3.62 12.35 -5.48 3.1 -1.87 7.83 -5.55 10.52 -8.18 5.5 -5.39 11.04 -16.03 12.96 -24.86 .69 -3.17 1.02 -9.16 .76 -13.65 -.39 -6.74 -1.1 -9.33 -4.47 -16.36 -2.3 -4.8 -6.18 -10.72 -9.12 -13.93 -2.85 -3.11 -7.68 -6.93 -10.91 -8.64 -3.19 -1.68 -8.95 -3.89 -12.8 -4.92 -6.67 -1.78 -13.59 -1.86 -147.25 -1.86 -77.14 0 -140.25 -.36 -140.25 -.8 -0 -1.61 2.86 -6.26 5.04 -8.2 1.23 -1.1 10.84 -11.9 21.33 -24 10.5 -12.1 25.17 -28.75 32.61 -37 7.44 -8.25 16.22 -18.15 19.52 -21.99 3.3 -3.85 17.71 -20.27 32.03 -36.5 14.31 -16.23 33.44 -38.04 42.5 -48.48 9.06 -10.43 21.66 -24.61 28 -31.5 10.56 -11.47 25.85 -28.69 47.97 -54 4.67 -5.35 12.56 -14.18 17.51 -19.63 4.96 -5.45 13.55 -15.3 19.1 -21.9 5.55 -6.6 16.63 -19.27 24.64 -28.16 8.01 -8.89 17.1 -19.24 20.21 -23 3.11 -3.76 6.97 -9.54 8.57 -12.84 1.61 -3.3 3.61 -8.68 4.44 -11.96 .84 -3.28 1.52 -8.68 1.51 -12 -.01 -3.32 -.61 -8.29 -1.35 -11.04 -2.15 -8.01 -7.14 -16.85 -13.26 -23.45 -3.12 -3.38 -7.66 -7.29 -10.07 -8.71 -2.41 -1.41 -7.18 -3.53 -10.6 -4.7 l-6.21 -2.13 -200.5 -.18 c-166.18 -.15 -201.57 .05 -206.74 1.18z M1792.5 2757.05 c-5.68 .44 -12.56 1.68 -15.92 2.87 -3.26 1.15 -8.05 3.46 -10.65 5.13 -2.6 1.67 -6.83 5.28 -9.39 8.02 -2.56 2.74 -6.23 8.28 -8.14 12.32 -2.4 5.06 -3.73 9.58 -4.26 14.53 -.42 3.95 -.41 10.18 .03 13.84 .5 4.17 2.09 9.37 4.26 13.93 1.9 4 5.55 9.52 8.11 12.25 2.56 2.74 6.84 6.36 9.53 8.09 2.69 1.72 8.17 4.36 12.16 5.82 l7.27 2.66 142.75 0 c78.51 0 142.75 .24 142.75 .53 -0 1.26 -11.72 15.01 -26.72 31.36 -8.92 9.72 -21.97 24.28 -29 32.35 -7.03 8.07 -19.53 22.07 -27.78 31.1 -17.43 19.08 -30.89 34.17 -44.39 49.74 -5.29 6.1 -18.39 20.95 -29.11 33 -10.73 12.05 -21.03 23.72 -22.9 25.92 -1.87 2.2 -10.9 12.32 -20.07 22.5 -30.97 34.36 -43.55 48.46 -53.06 59.47 -5.21 6.03 -20.68 23.58 -34.38 39 -13.7 15.42 -26.93 30.73 -29.39 34.03 -2.46 3.3 -5.55 8.31 -6.86 11.14 -1.31 2.82 -2.9 8.72 -3.54 13.11 -.99 6.8 -.91 9.28 .58 16.82 1.08 5.51 3.07 11.38 5.27 15.57 2.11 4.02 5.93 8.75 9.43 12.09 3.61 3.44 8.68 7.18 13.22 9.33 5.56 2.64 9.58 3.75 16.29 4.5 5.71 .64 79.59 .88 205.42 .69 174.99 -.27 197.05 -.48 201.5 -1.87 12.23 -3.83 22.92 -11.37 28.6 -20.14 2.16 -3.35 4.78 -8.82 5.81 -12.16 1.03 -3.34 2.19 -9.45 2.57 -13.57 .5 -5.41 .26 -9.37 -.88 -14.25 -.87 -3.72 -2.7 -8.99 -4.08 -11.71 -1.38 -2.72 -5.14 -7.76 -8.4 -11.25 -5.81 -6.21 -12.77 -10.92 -19.2 -12.84 -1.77 -.53 -7.02 -1.45 -11.42 -1.97 -4.68 -.56 -64.94 -.96 -145.25 -.98 -75.49 -.01 -137.25 -.36 -137.24 -.76 .01 -1.62 4.07 -6.62 16.11 -19.86 6.94 -7.63 15.87 -17.66 19.84 -22.29 11.47 -13.36 35.56 -40.59 46.54 -52.58 5.54 -6.05 13 -14.38 16.57 -18.5 18.42 -21.25 28.61 -32.83 40.45 -46 7.17 -7.97 17.75 -19.9 23.51 -26.49 11.37 -13.03 62.1 -70.43 72.83 -82.41 3.65 -4.08 12.49 -14.01 19.64 -22.09 7.15 -8.07 22 -24.71 33 -36.98 11 -12.26 21.52 -24.15 23.39 -26.41 6.23 -7.57 11.12 -15.91 13.13 -22.4 2.24 -7.24 2.58 -17.33 .86 -25.42 -.62 -2.91 -2.47 -7.98 -4.12 -11.26 -1.65 -3.28 -5.66 -8.74 -8.93 -12.14 -3.26 -3.4 -8.49 -7.53 -11.63 -9.19 -3.13 -1.66 -8.17 -3.84 -11.2 -4.86 -5.26 -1.76 -13.97 -1.85 -199.5 -1.96 -106.7 -.07 -198.5 .23 -204 .65z"/>
<path stroke-width="0.80" stroke-linejoin="round" stroke="#cdd3da" fill-rule="evenodd" fill="#cdd3da" d="M575 786.69 c-6.55 1.1 -15.55 4.87 -20.75 8.72 -3.16 2.33 -8.4 7.12 -11.65 10.64 -7.41 8.03 -13.17 19.68 -14.56 29.45 -.65 4.59 -1.01 239.26 -1.04 680.5 -.03 409.23 -.41 678.21 -.98 685.5 -.52 6.6 -2.29 23.03 -3.95 36.5 -1.66 13.47 -3.69 31.47 -4.52 40 -2.53 25.94 -5.45 65.31 -6.52 88 -1.3 27.42 -1.3 80.98 -0 110 1.17 26.21 4.03 61.38 7.52 92.5 3.1 27.63 4.67 38.82 9.04 64.5 7.47 43.85 15.94 82.68 25.5 117 10.52 37.71 24.52 81.55 35.51 111.19 7.23 19.48 20.14 50.81 29.4 71.31 9.79 21.68 39.24 81.56 47.57 96.71 27.99 50.93 61.38 102.7 95.31 147.79 29.96 39.81 43.33 55.88 81.08 97.5 33.22 36.62 74.37 76.37 116.54 112.58 22.67 19.47 33.44 28.13 56 45.07 26.33 19.76 40.62 29.91 65.65 46.61 26.67 17.79 56.7 36.24 81.35 49.97 21.17 11.79 62.67 32.68 83.38 41.97 23.45 10.52 52.44 22.59 68.62 28.58 23.87 8.83 58.22 20.09 81.5 26.72 28.52 8.12 56.13 14.93 85.11 20.99 54.2 11.33 112.56 19.26 173.39 23.57 12.1 .86 39.55 1.97 61 2.47 50.13 1.17 423.51 1.17 484.5 0 25.57 -.49 53.47 -1.38 62 -1.98 20.05 -1.41 52.38 -4.62 72 -7.14 22.3 -2.87 58.42 -9.07 81 -13.9 24.87 -5.32 61.07 -14.47 84.9 -21.45 34.5 -10.11 72.45 -23.66 104.6 -37.35 30.16 -12.84 70.28 -32.59 100.25 -49.34 14.63 -8.18 38.49 -22.7 57.75 -35.14 30.58 -19.76 73.11 -52.43 103 -79.13 19.52 -17.44 43.23 -40.61 60.77 -59.38 21.44 -22.95 30.72 -33.36 43.86 -49.2 9.44 -11.38 27.35 -34.5 37.97 -49 9.09 -12.42 33.95 -49.51 43.89 -65.48 17.98 -28.91 35.32 -60.37 54 -98.02 17.75 -35.76 33.1 -69.21 42.22 -92 12.5 -31.23 24.93 -64.87 34.94 -94.5 11.1 -32.87 27.48 -88.38 34.38 -116.5 6.94 -28.28 17.32 -76.9 22.85 -107 4.46 -24.26 10.8 -65.34 14.04 -91 5.17 -40.85 9.76 -94.83 11.68 -137.5 .73 -16.12 .95 -45.36 .6 -79.5 -.41 -40.03 -1.09 -61.5 -2.63 -83 -3.32 -46.25 -8.51 -85.98 -16.14 -123.5 -5.62 -27.64 -10.33 -47.54 -16.56 -70 -9.41 -33.92 -21.81 -69.56 -32.91 -94.55 -8.72 -19.65 -27.71 -58.07 -36.01 -72.88 -3.68 -6.56 -10.6 -18.04 -15.38 -25.5 -10.93 -17.07 -34.33 -49.79 -46.87 -65.53 -9.97 -12.52 -58.92 -62.74 -79.63 -81.7 -6.56 -6.01 -23.13 -19.52 -36.81 -30.04 -13.68 -10.51 -26.47 -20.96 -28.41 -23.21 -4.11 -4.76 -7.99 -12.01 -10.24 -19.09 -1.43 -4.51 -1.63 -41.81 -2.1 -382.5 l-.52 -377.5 -2.17 -5.28 c-1.19 -2.9 -3.55 -7.44 -5.24 -10.07 -4.37 -6.82 -16.67 -18.4 -22.86 -21.53 -2.9 -1.47 -8.07 -3.39 -11.5 -4.27 -4.44 -1.14 -8.56 -1.44 -14.31 -1.04 -4.44 .31 -10.4 1.45 -13.23 2.52 -2.83 1.08 -8 3.99 -11.49 6.48 -3.49 2.49 -11.71 9.59 -18.27 15.78 -33.49 31.58 -43.72 41.15 -63.93 59.87 -12.1 11.2 -29.88 27.84 -39.5 36.98 -9.62 9.14 -26.93 25.38 -38.46 36.09 -36.41 33.84 -70.35 65.64 -98.16 91.98 -14.81 14.03 -40.62 38.32 -57.36 54 -16.74 15.68 -42.77 40.2 -57.85 54.5 -15.07 14.3 -34.66 32.72 -43.54 40.93 -8.87 8.21 -27.87 25.99 -42.21 39.5 -14.34 13.51 -32.39 30.42 -40.09 37.57 -7.71 7.15 -22.09 20.65 -31.95 30 -18.9 17.9 -53.34 50.24 -71.24 66.88 -5.85 5.43 -20.53 19.2 -32.63 30.59 -34.23 32.22 -53.49 49.86 -59.7 54.66 -3.13 2.42 -8.46 5.71 -11.85 7.31 -3.38 1.6 -9.17 3.42 -12.85 4.04 -4.84 .82 -9.01 .84 -15 .09 -4.57 -.57 -19.39 -3.96 -32.95 -7.52 -27.72 -7.29 -60.05 -14.85 -83.15 -19.45 -27.75 -5.52 -71.12 -12.92 -94.06 -16.04 -30.01 -4.09 -64.65 -7.52 -103.44 -10.24 -26.95 -1.89 -40.28 -2.25 -84.5 -2.26 -39.61 -.01 -59.01 .42 -79 1.76 -50.6 3.37 -91.83 7.55 -130.88 13.25 -19.46 2.84 -88.42 15.05 -107.33 19 -18.02 3.77 -69.66 16.51 -93.01 22.96 -11.15 3.08 -28.71 8.05 -39.02 11.05 -10.31 3 -21.78 6.16 -25.5 7.02 -3.71 .86 -10.18 1.57 -14.37 1.57 -4.19 0 -9.88 -.67 -12.63 -1.49 -7.31 -2.17 -15.71 -6.51 -20.43 -10.55 -2.27 -1.95 -13.2 -15.71 -24.28 -30.58 -11.08 -14.87 -27.46 -36.44 -36.39 -47.93 -8.93 -11.49 -20.16 -26.29 -24.94 -32.88 -4.79 -6.59 -14 -18.79 -20.47 -27.11 -6.47 -8.32 -22.66 -29.74 -35.98 -47.62 -13.32 -17.88 -31.64 -42.18 -40.71 -54 -9.07 -11.82 -25.96 -34.1 -37.54 -49.5 -11.58 -15.4 -26.12 -34.61 -32.3 -42.69 -6.19 -8.08 -18.5 -24.51 -27.36 -36.5 -8.86 -11.99 -21.12 -28.08 -27.23 -35.74 -6.11 -7.66 -23.04 -30.02 -37.61 -49.68 -14.58 -19.66 -33.17 -44.44 -41.32 -55.06 -8.15 -10.62 -19.27 -25.17 -24.72 -32.32 -5.44 -7.15 -18.02 -23.57 -27.95 -36.5 -9.93 -12.93 -25.34 -33.4 -34.24 -45.5 -8.91 -12.1 -22.32 -29.88 -29.8 -39.5 -7.48 -9.62 -25.48 -33.47 -39.99 -53 -14.51 -19.53 -28.85 -38.65 -31.86 -42.5 -3.01 -3.85 -9.12 -10.64 -13.59 -15.08 -5.56 -5.54 -10.14 -9.08 -14.57 -11.24 -3.55 -1.74 -8.89 -3.61 -11.85 -4.17 -5.35 -1 -11.33 -1.12 -16.11 -.31z m1762.68 1209.18 l-2.82 .63 2.92 2.79 c2.58 2.46 3.07 2.61 4.2 1.25 .7 -.85 1.84 -1.54 2.53 -1.54 .69 0 1.82 .68 2.5 1.5 .92 1.11 3.37 1.5 9.42 1.5 5.03 0 8.64 -.46 9.38 -1.2 .93 -.93 1.47 -.93 2.4 0 .66 .66 1.94 1.2 2.85 1.2 .9 0 2.46 -.9 3.45 -2 1 -1.1 2.19 -2 2.65 -2 .46 0 .85 .88 .85 1.97 0 1.95 1.62 1.97 165.08 2.02 97.36 .03 168.86 .44 174.29 1 9.17 .95 14.59 2.39 20.51 5.45 3.09 1.6 3.11 1.59 3.11 -.92 0 -1.55 .57 -2.53 1.46 -2.53 .8 0 4.34 2.69 7.85 5.97 4.37 4.08 7.42 8.07 9.65 12.6 1.79 3.64 3.79 9.75 4.43 13.58 .64 3.82 1.49 6.63 1.89 6.23 .39 -.39 .72 1.18 .72 3.51 0 2.32 -.39 3.99 -.86 3.69 -.47 -.29 -1.12 1.92 -1.43 4.92 -.58 5.63 -4.67 14.85 -9.48 21.38 -5.2 7.06 -10.43 13.11 -11.32 13.11 -.5 0 -.93 -1.01 -.95 -2.25 -.04 -1.97 -.56 -1.69 -4.25 2.36 -2.31 2.54 -8.93 9.96 -14.69 16.5 -5.77 6.54 -16.38 18.41 -23.57 26.39 -7.2 7.97 -26.28 29.57 -42.42 48 -16.13 18.43 -33.22 37.78 -37.98 43 -8.85 9.73 -41.41 46.58 -53.02 60.01 -3.56 4.12 -10.78 12.22 -16.03 17.99 -5.26 5.78 -12.69 14.1 -16.52 18.5 -6.33 7.28 -20.6 23.13 -44.99 50 -20.31 22.37 -57.49 65.36 -57.49 66.47 0 .36 1.24 1.82 2.75 3.24 l2.75 2.59 120.75 .54 120.75 .54 0 -2.94 c0 -2.93 .03 -2.94 6 -2.94 l6 0 0 3.06 c0 1.68 .42 2.8 .92 2.49 .51 -.31 8.05 -.17 16.75 .32 12.63 .71 17.24 1.39 22.83 3.35 3.85 1.35 7.79 2.8 8.75 3.23 1.36 .6 1.75 .3 1.75 -1.34 0 -1.17 .64 -2.11 1.44 -2.11 .79 0 4.13 2.49 7.39 5.51 3.74 3.46 7.21 7.96 9.45 12.23 1.95 3.72 3.9 8.51 4.29 10.58 .38 2.07 .96 3.89 1.32 4.12 .37 .23 .27 4.83 -.22 10.24 -.49 5.4 -.95 11.02 -1.03 12.48 -.08 1.46 -.45 2.47 -.82 2.24 -1.01 -.63 -2.06 3.41 -1.23 4.76 .65 1.06 .6 1.09 -.61 .34 -.97 -.6 -1.15 -.36 -.67 .9 .47 1.23 .39 1.55 -.28 1.14 -.52 -.32 -1.48 .45 -2.13 1.7 -2.25 4.3 -7.26 10.01 -12.17 13.89 -2.7 2.14 -5.32 3.88 -5.82 3.88 -.5 0 -.91 -1.12 -.91 -2.5 0 -1.38 -.24 -2.5 -.54 -2.5 -.3 0 -2.22 .86 -4.28 1.91 -2.06 1.05 -6.4 2.4 -9.64 3 -3.25 .6 -12.34 1.09 -20.22 1.09 l-14.32 0 0 3 c0 2.93 -.11 3 -5 3 -4.88 0 -5 -.07 -5 -2.98 l0 -2.98 -181.25 -.27 -181.25 -.27 -6.5 -2.24 c-3.57 -1.23 -8.79 -3.56 -11.59 -5.18 -2.8 -1.62 -6.4 -4.56 -8 -6.54 -1.6 -1.98 -4.36 -5.28 -6.13 -7.32 -2.34 -2.7 -3.23 -3.24 -3.25 -1.97 -.01 .96 -.41 1.75 -.88 1.75 -1.02 0 -3.67 -5.97 -5.1 -11.5 -1.3 -5.01 -1.26 -16.67 .03 -22.6 1.13 -5.22 5.91 -15.9 7.11 -15.9 .45 0 .82 .93 .82 2.06 0 1.13 .44 1.78 .99 1.45 .54 -.34 4.03 -4.35 7.75 -8.92 6.7 -8.23 32.2 -37.1 58.26 -65.94 7.43 -8.22 18.38 -20.61 24.35 -27.54 5.97 -6.93 18.61 -21.15 28.11 -31.6 9.49 -10.45 18.78 -20.8 20.64 -23 4.87 -5.77 16.03 -18.42 26.43 -29.98 4.96 -5.51 15.3 -17.22 22.97 -26.02 7.68 -8.8 26.37 -29.95 41.53 -47 15.17 -17.05 34.52 -39.1 43 -49 18.86 -22.01 30.87 -35.47 41 -46 4.24 -4.4 7.97 -8.79 8.31 -9.76 .39 -1.13 -.39 -2.88 -2.19 -4.89 l-2.8 -3.13 -141.43 -.22 c-78.04 -.12 -114.28 -.07 -132.73 -.83 -18.45 -.76 -19.12 -2.35 -26.02 -5.75 -3.53 -1.74 -8.09 -4.83 -10.12 -6.86 -2.04 -2.04 -4.72 -5.81 -5.97 -8.38 -1.25 -2.57 -2.89 -7.04 -3.66 -9.92 -.77 -2.88 -1.4 -8.03 -1.41 -11.44 -.01 -3.41 .5 -8.59 1.12 -11.5 .62 -2.91 2.13 -7.55 3.34 -10.3 1.22 -2.75 3.51 -6.54 5.1 -8.42 1.59 -1.88 4.92 -4.71 7.41 -6.28 5.48 -3.47 18.72 -7.8 23.88 -7.8 2.87 0 4.44 -.71 6.61 -2.97 2.11 -2.2 2.48 -3.09 1.44 -3.42 -.77 -.25 -2.08 -.68 -2.91 -.95 -.82 -.28 1.65 -.48 5.5 -.46 4.34 .02 5.93 .28 4.18 .67z m-1276.18 108.13 c1.69 1.86 3.08 2 20.45 2 13.54 0 19.01 -.34 19.97 -1.25 1.05 -.99 1.42 -1 1.78 -.02 .36 .97 36.73 1.24 171.4 1.26 106.69 .01 173.56 .39 177.89 1.01 5.99 .85 10.34 2.15 18.26 5.48 1.35 .57 1.75 .25 1.75 -1.37 0 -1.16 .62 -2.11 1.39 -2.11 .76 0 4.14 2.95 7.51 6.55 3.37 3.6 7.7 9.67 9.61 13.48 1.92 3.81 3.49 7.64 3.49 8.51 0 .87 .34 1.38 .75 1.12 .41 -.25 .88 3.66 1.04 8.69 .34 10.42 -1.25 17.89 -5.76 27.15 -1.61 3.3 -6.37 10.16 -10.59 15.25 -4.22 5.09 -8.04 9.25 -8.49 9.25 -.45 0 -.96 -1 -1.13 -2.21 -.26 -1.81 -2.9 .64 -14.65 13.65 -7.88 8.73 -18.9 21.31 -24.49 27.96 -5.59 6.65 -14.22 16.55 -19.17 22 -4.96 5.45 -12.84 14.28 -17.51 19.63 -22.12 25.31 -37.41 42.53 -47.97 54 -6.34 6.89 -18.94 21.07 -28 31.5 -9.06 10.43 -28.19 32.25 -42.5 48.48 -14.31 16.23 -28.73 32.65 -32.03 36.5 -3.3 3.85 -12.08 13.74 -19.52 21.99 -7.43 8.25 -20.88 23.55 -29.89 34 -9.01 10.45 -18.71 21.47 -21.56 24.5 -2.85 3.03 -5.91 6.68 -6.79 8.12 -1.56 2.54 -1.51 2.71 1.62 5.75 l3.23 3.13 140.95 .27 c139.06 .27 141.05 .3 148.02 2.34 3.89 1.14 9.4 3.34 12.25 4.89 2.85 1.55 6.33 4.32 7.73 6.16 1.4 1.83 4.21 6.82 6.25 11.09 3.54 7.42 3.7 8.21 3.7 18.26 0 7.62 -.52 12.09 -1.9 16.3 -1.05 3.19 -3.3 8.14 -5 11 -2.16 3.62 -5.01 6.49 -9.41 9.43 -3.47 2.33 -8.64 4.95 -11.5 5.84 -2.86 .88 -10.14 1.99 -16.19 2.46 -14.76 1.15 -380.66 1.18 -391.53 .04 -11.83 -1.24 -20.67 -4.97 -28.07 -11.82 -5.07 -4.7 -5.9 -5.15 -5.9 -3.27 0 1.3 -.51 2.03 -1.25 1.8 -.69 -.22 -3.18 -4.19 -5.53 -8.83 -4.12 -8.11 -5 -11.57 -6.88 -26.94 -.31 -2.51 -.19 -4.15 .26 -3.72 .44 .43 1.8 -2.18 3.02 -5.8 1.22 -3.62 4.11 -9.48 6.42 -13.03 2.31 -3.55 4.57 -6.45 5.02 -6.45 .45 0 .96 .95 1.13 2.11 .25 1.67 3.33 -1.28 14.82 -14.18 7.97 -8.96 21.43 -24.19 29.9 -33.86 8.47 -9.66 23.15 -26.34 32.61 -37.07 9.47 -10.72 26.81 -30.53 38.54 -44 11.73 -13.47 26.76 -30.57 33.41 -38 6.64 -7.43 20.16 -22.72 30.04 -34 9.87 -11.28 26.97 -30.66 37.98 -43.08 11.01 -12.42 26.55 -29.94 34.53 -38.93 7.97 -8.99 20.74 -23.58 28.36 -32.42 7.62 -8.84 18.67 -21.47 24.55 -28.07 5.88 -6.6 10.99 -12.79 11.36 -13.75 .45 -1.18 -.35 -2.91 -2.46 -5.31 l-3.13 -3.56 -140.59 .19 c-108.23 .14 -141.62 -.09 -145.06 -1.04 -6.13 -1.68 -17.23 -7.39 -21.29 -10.95 -1.84 -1.62 -4.53 -5.11 -5.96 -7.76 -1.43 -2.65 -3.34 -7.52 -4.24 -10.82 -.9 -3.3 -2.08 -6.82 -2.64 -7.81 -.55 -1 -.72 -2.72 -.37 -3.82 .4 -1.25 -.02 -2.74 -1.12 -3.95 -1.71 -1.89 -1.7 -2 .22 -4.18 1.09 -1.23 2.73 -4.71 3.66 -7.74 .93 -3.03 3.05 -7.87 4.72 -10.76 1.67 -2.9 4.93 -6.66 7.26 -8.37 5.85 -4.3 15.26 -8.67 20.32 -9.43 2.57 -.39 5.13 -1.58 6.49 -3.03 1.24 -1.32 2.78 -2.4 3.42 -2.4 .64 0 1.99 .9 2.98 2z m746.03 657.05 c.47 .77 1.05 .71 2.14 -.19 1.16 -.96 1.9 -.98 3.33 -.09 1.36 .85 48.81 1.16 183.71 1.21 103.98 .04 185.28 .46 189.83 .98 8.01 .93 13.6 2.51 19.34 5.48 3.09 1.6 3.11 1.59 3.11 -.92 0 -1.39 .49 -2.53 1.09 -2.53 .6 0 3.94 2.74 7.42 6.08 3.91 3.76 7.69 8.66 9.87 12.82 1.95 3.71 3.84 8.62 4.21 10.92 .37 2.3 .95 4.18 1.29 4.18 .34 0 .34 4.39 -.02 9.75 -.35 5.36 -1.38 11.76 -2.28 14.22 -.9 2.46 -2.72 6.31 -4.04 8.56 -3.31 5.64 -13.44 18.48 -14.6 18.48 -.52 0 -.94 -.96 -.94 -2.12 0 -1.86 -.2 -1.95 -1.66 -.75 -1.6 1.32 -26.51 29.03 -53.84 59.88 -7.15 8.07 -15.99 18.01 -19.64 22.09 -10.73 11.98 -61.46 69.38 -72.83 82.41 -5.76 6.6 -16.34 18.52 -23.51 26.49 -11.84 13.17 -22.03 24.75 -40.45 46 -3.58 4.12 -11.03 12.45 -16.57 18.5 -10.98 11.99 -35.08 39.21 -46.54 52.58 -3.97 4.63 -12.9 14.66 -19.84 22.29 -6.94 7.63 -13.49 15.22 -14.55 16.89 l-1.93 3.02 3.67 3.36 c2.02 1.85 4.69 3.36 5.93 3.35 1.25 -.01 65.49 .12 142.76 .27 103.39 .21 141.36 .59 143.75 1.44 3.19 1.14 3.25 1.11 3.25 -1.77 0 -1.61 .31 -2.99 .92 -2.99 .61 0 3.97 1.48 7.23 3.21 3.47 1.85 8.4 5.81 11.97 9.62 3.35 3.58 7.36 9.16 8.87 12.35 1.51 3.19 3.1 5.48 3.54 5.08 .48 -.43 .52 -.23 .09 .51 -.95 1.65 .37 8.4 1.5 7.7 .49 -.3 .89 1.92 .89 4.95 0 3.02 -.39 5.74 -.86 6.03 -.75 .46 -2.07 7.96 -2.5 14.24 -.08 1.18 -.44 1.98 -.79 1.76 -.35 -.22 -.9 .63 -1.22 1.89 -1.1 4.4 -8.48 14.48 -13.29 18.18 -2.67 2.05 -4.73 4.16 -4.58 4.7 .2 .71 .01 .8 -.72 .35 -.55 -.34 -2.34 .08 -3.98 .93 -1.64 .85 -3.45 1.54 -4.03 1.54 -.58 0 -1.05 -1.08 -1.05 -2.41 l0 -2.41 -5.25 1.63 c-4.76 1.48 -23.58 1.66 -201.75 1.94 -125.19 .2 -199.72 -.05 -205.37 -.68 -6.29 -.7 -10.79 -1.89 -15.47 -4.08 -3.63 -1.7 -8.08 -4.21 -9.88 -5.59 l-3.28 -2.5 0 2.05 c0 1.13 -.43 2.28 -.93 2.28 -1.62 0 -7.04 -7.21 -10.02 -13.12 -3.95 -7.82 -6.48 -20.63 -5.66 -28.63 .35 -3.42 1.31 -8.48 2.13 -11.26 .82 -2.78 3.61 -8.24 6.19 -12.13 2.58 -3.9 5.02 -7.09 5.42 -7.09 .4 0 .87 1.01 1.04 2.24 .26 1.81 5.64 -3.74 27.85 -28.75 15.14 -17.05 32.01 -36.17 37.48 -42.49 10.14 -11.71 23.74 -26.96 53.52 -60 9.17 -10.18 18.2 -20.3 20.07 -22.5 1.87 -2.2 12.17 -13.86 22.9 -25.92 10.73 -12.05 23.83 -26.9 29.11 -33 13.5 -15.57 26.96 -30.65 44.39 -49.74 8.25 -9.03 20.75 -23.03 27.78 -31.1 7.03 -8.07 20.08 -22.63 29 -32.35 15.29 -16.66 26.72 -30.11 26.72 -31.43 0 -.32 -1.3 -1.84 -2.9 -3.36 l-2.9 -2.77 -142.85 -.16 -142.85 -.16 -6.5 -2.35 c-3.58 -1.3 -7.74 -2.99 -9.25 -3.78 -2.65 -1.37 -2.75 -1.33 -2.75 1.1 0 1.39 -.41 2.55 -.93 2.55 -.52 0 -3.67 -2.54 -7 -5.62 -4.39 -4.06 -7.14 -7.79 -10.06 -13.62 -2.21 -4.41 -4.02 -8.87 -4.02 -9.91 0 -1.04 -.39 -1.88 -.86 -1.88 -.48 0 -.64 -1.17 -.36 -2.65 .35 -1.83 .15 -2.43 -.64 -1.94 -.81 .5 -1.14 -1.07 -1.14 -5.41 0 -3.82 .37 -5.89 1 -5.5 .9 .56 1.09 -.42 1.42 -7.25 .05 -.96 .31 -1.97 .58 -2.25 .28 -.28 1.98 -3.58 3.79 -7.35 3.32 -6.92 12.35 -17.65 14.85 -17.65 .75 0 1.35 .94 1.35 2.08 0 1.15 .34 1.91 .75 1.7 10.69 -5.48 19.22 -7.78 28.84 -7.78 5.15 0 7.52 -.42 8.41 -1.5 1.45 -1.74 3.6 -1.96 4.53 -.45z m-985.52 478.26 c3.95 4.23 6.81 7.69 6.34 7.69 -.46 0 .39 1.14 1.9 2.54 1.51 1.4 2.74 2.97 2.74 3.5 0 .53 .51 .85 1.12 .71 .62 -.14 1.31 .24 1.53 .83 .22 .6 -.59 1.01 -1.82 .92 -1.22 -.09 -2.42 -.75 -2.66 -1.48 -.24 -.72 -2.29 -3.19 -4.56 -5.48 -8.11 -8.21 -11.62 -12.45 -11.62 -14.05 0 -.89 -.4 -1.37 -.89 -1.07 -.49 .3 -1.38 -.05 -1.98 -.77 -.85 -1.02 -.66 -1.29 .8 -1.18 1.04 .08 5.13 3.6 9.08 7.83z"/>
<path stroke="none" fill-rule="evenodd" fill="#cdd3da" d="M2174.32 415.75 c14.2 .16 37.15 .16 51 -0 13.85 -.16 2.23 -.28 -25.82 -.28 -28.05 0 -39.38 .13 -25.18 .28z M3036.42 976.5 c0 11.55 .15 16.14 .32 10.2 .18 -5.94 .18 -15.39 -0 -21 -.18 -5.61 -.32 -.75 -.32 10.8z M2033.75 1075.75 c10.04 .16 26.46 .16 36.5 0 10.04 -.16 1.82 -.3 -18.25 -.3 -20.08 0 -28.29 .13 -18.25 .3z M2160.32 1075.75 c19.15 .15 50.2 .15 69 -0 18.8 -.15 3.13 -.28 -34.82 -.28 -37.95 0 -53.33 .12 -34.18 .28z M1789.68 1175.75 c10.55 .16 28.1 .16 39 0 10.9 -.16 2.27 -.29 -19.18 -.29 -21.45 -0 -30.37 .13 -19.82 .29z M2250.81 1175.75 c7.87 .17 20.47 .17 28 -0 7.53 -.17 1.09 -.31 -14.31 -.31 -15.4 0 -21.56 .14 -13.69 .31z M3036.46 1617.5 c0 23.65 .13 33.18 .29 21.18 .16 -12 .16 -31.35 -0 -43 -.16 -11.65 -.29 -1.83 -.29 21.82z"/>
</svg>